<?xml version="1.0" encoding="utf-8"?>
<!-- Generator: Adobe Illustrator 27.0.0, SVG Export Plug-In . SVG Version: 6.00 Build 0)  -->
<svg version="1.1" id="Слой_1" xmlns="http://www.w3.org/2000/svg" xmlns:xlink="http://www.w3.org/1999/xlink" x="0px" y="0px"
	 viewBox="0 0 595.3 841.9" style="enable-background:new 0 0 595.3 841.9;" xml:space="preserve">
<g>
	<path d="M119.7,223.4c0-0.9-0.1-1.8-0.1-2.7c0-62.5,0-125,0-187.5c0-0.9,0-1.7,0-2.7c-16.8,0-33.4,0-50.2,0c0,3.2-0.1,6.3,0.1,9.5
		c0,0.4,0.8,1,1.4,1.2c2.3,0.8,4.6,1.3,6.8,2.3c3.9,1.6,5.6,4.6,5.3,9c-12.2,0-24.5,0-36.7,0c-0.4-4.1,1-7.1,4.5-8.7
		c2.3-1.1,4.8-1.8,7.3-2.5c1.4-0.4,1.9-0.9,1.9-2.4c-0.1-5.3,0-10.5,0-15.8c0-0.6,0-1.2,0-2c25.1,0,50.1,0,75.3,0c0,0.9,0,1.7,0,2.5
		c0,65.7,0,131.4,0,197.1c0,0.9,0,1.8,0,2.7C130.1,223.4,124.9,223.4,119.7,223.4z"/>
	<path d="M68.4,97.8c0-2.1,1.6-3.7,3.6-3.7c1.9,0,3.6,1.7,3.6,3.7c0,2-1.7,3.8-3.5,3.8C70,101.7,68.4,99.9,68.4,97.8z"/>
	<path d="M60,148.9c0-2.1,1.6-3.8,3.6-3.8c1.9,0,3.6,1.7,3.6,3.7c0,2-1.6,3.7-3.6,3.7C61.6,152.6,60.1,151,60,148.9z"/>
	<path d="M73.8,69.1c0,2-1.6,3.7-3.6,3.7c-2,0-3.6-1.7-3.6-3.7c-0.1-2,1.7-3.8,3.7-3.8C72.3,65.4,73.8,67,73.8,69.1z"/>
	<path d="M45.8,86.7c2,0.1,3.6,1.8,3.5,3.8c-0.1,2-1.9,3.8-3.9,3.7c-2-0.1-3.4-1.8-3.4-3.9C42.2,88.1,43.8,86.6,45.8,86.7z"/>
	<path d="M87.1,119.3c0,2.1-1.6,3.6-3.6,3.6c-2,0-3.6-1.7-3.6-3.7c0-2,1.5-3.7,3.5-3.7C85.5,115.6,87.1,117.1,87.1,119.3z"/>
	<path d="M66.9,119.9c0,2.1-1.5,3.7-3.5,3.7c-2,0-3.7-1.5-3.7-3.5c-0.1-2,1.6-3.8,3.6-3.9C65.3,116.1,66.9,117.8,66.9,119.9z"/>
	<path d="M66.6,62.2c-0.1,2.1-1.6,3.6-3.6,3.6c-1.9,0-3.6-1.8-3.5-3.7c0-2.1,1.8-3.8,3.8-3.7C65.1,58.5,66.6,60.1,66.6,62.2z"/>
	<path d="M31,201.4c1.9,0,3.6,1.8,3.5,3.7c0,2.1-1.8,3.8-3.8,3.7c-2-0.1-3.4-1.7-3.4-3.8C27.4,202.9,29,201.3,31,201.4z"/>
	<path d="M67.7,192.3c0,2-1.6,3.7-3.6,3.7c-1.9,0-3.6-1.7-3.6-3.7c0-2.1,1.7-3.9,3.7-3.8C66.2,188.5,67.7,190.2,67.7,192.3z"/>
	<path d="M93,194.5c-2,0-3.6-1.6-3.6-3.6c0-2,1.6-3.7,3.5-3.7c2.1,0,3.7,1.6,3.7,3.8C96.6,193.1,95,194.6,93,194.5z"/>
	<path d="M36.1,190.8c0,2-1.7,3.7-3.6,3.6c-2,0-3.6-1.7-3.6-3.7c0-2,1.8-3.8,3.8-3.7C34.6,187,36.1,188.7,36.1,190.8z"/>
	<path d="M50.9,84.1c0-2.1,1.6-3.7,3.6-3.7c2,0,3.7,1.8,3.6,3.9c-0.1,2.1-1.7,3.6-3.7,3.5C52.3,87.8,50.9,86.2,50.9,84.1z"/>
	<path d="M60.4,206.5c0-2,1.6-3.6,3.6-3.6c1.9,0,3.7,1.9,3.6,3.9c-0.1,1.9-1.8,3.6-3.7,3.6C61.9,210.4,60.4,208.7,60.4,206.5z"/>
	<path d="M53.5,102.3c-2.1-0.1-3.5-1.9-3.3-4.1c0.2-2,1.9-3.5,3.9-3.3c1.9,0.2,3.4,2,3.3,4C57.1,100.9,55.5,102.4,53.5,102.3z"/>
	<path d="M82,101.2c2,0.1,3.5,1.7,3.5,3.7c0,2-1.7,3.6-3.6,3.6c-2.1,0-3.7-1.8-3.6-3.8C78.4,102.6,80,101.2,82,101.2z"/>
	<path d="M79.9,170c0,2.1-1.5,3.7-3.5,3.7c-2.1,0-3.7-1.6-3.7-3.7c0-2,1.6-3.6,3.6-3.6C78.3,166.4,79.8,167.9,79.9,170z"/>
	<path d="M52.7,116.7c-2,0-3.6-1.6-3.7-3.6c-0.1-2.1,1.6-3.8,3.6-3.8c1.9,0,3.6,1.7,3.6,3.7C56.3,115,54.6,116.7,52.7,116.7z"/>
	<path d="M77.2,126.8c0,2.1-1.5,3.7-3.5,3.7c-2,0-3.7-1.7-3.7-3.8c0-2,1.7-3.7,3.7-3.6C75.7,123.1,77.2,124.7,77.2,126.8z"/>
	<path d="M67.3,163.3c0,2.1-1.6,3.7-3.5,3.7c-2,0-3.6-1.7-3.6-3.9c0-2,1.7-3.6,3.7-3.6C65.9,159.6,67.3,161.2,67.3,163.3z"/>
	<path d="M39.9,162c0,2.1-1.4,3.6-3.5,3.7c-2.1,0.1-3.7-1.6-3.7-3.7c0-2,1.7-3.6,3.6-3.6C38.4,158.4,39.9,159.9,39.9,162z"/>
	<path d="M63.8,130.7c1.9,0.1,3.5,1.8,3.5,3.8c0,2-1.7,3.7-3.6,3.6c-2,0-3.7-1.8-3.6-3.9C60.2,132.2,61.8,130.6,63.8,130.7z"/>
	<path d="M59,69.7c0,2.1-1.5,3.7-3.4,3.8c-2,0-3.7-1.7-3.6-3.8c0-2,1.7-3.7,3.6-3.6C57.5,66.1,59,67.6,59,69.7z"/>
	<path d="M67.7,83.4c0-2,1.6-3.7,3.6-3.7c2,0,3.7,1.8,3.6,3.9c-0.1,2-1.8,3.7-3.7,3.6C69.2,87.1,67.6,85.4,67.7,83.4z"/>
	<path d="M60.8,177.8c0-2.1,1.4-3.7,3.4-3.8c2,0,3.7,1.7,3.7,3.8c0,2-1.7,3.7-3.6,3.7C62.3,181.5,60.8,179.8,60.8,177.8z"/>
	<path d="M87.8,176.5c0-2.1,1.6-3.7,3.7-3.7c1.9,0.1,3.5,1.7,3.5,3.7c0,2-1.6,3.6-3.5,3.7C89.4,180.2,87.8,178.6,87.8,176.5z"/>
	<path d="M47.1,104.6c0,2.1-1.5,3.7-3.5,3.8c-1.9,0.1-3.7-1.6-3.7-3.5c-0.1-2,1.6-3.9,3.6-3.9C45.6,100.9,47.1,102.5,47.1,104.6z"/>
	<path d="M60,105.5c0-2,1.5-3.7,3.5-3.7c1.9,0,3.6,1.6,3.7,3.6c0.1,2.1-1.6,3.8-3.7,3.8C61.5,109.1,60,107.6,60,105.5z"/>
	<path d="M45.6,119c0,2.2-1.5,3.7-3.7,3.7c-2,0-3.4-1.5-3.5-3.5c-0.1-2.1,1.5-3.8,3.6-3.8C44,115.4,45.6,116.9,45.6,119z"/>
	<path d="M54,156.3c0,2-1.5,3.7-3.5,3.7c-2.1,0-3.7-1.6-3.7-3.8c0-2,1.6-3.6,3.6-3.6C52.4,152.7,54,154.3,54,156.3z"/>
	<path d="M87.2,151.6c-2,0-3.6-1.5-3.6-3.6c0-2.2,1.5-3.8,3.6-3.7c2,0,3.6,1.7,3.5,3.7C90.8,150,89.3,151.6,87.2,151.6z"/>
	<path d="M41.8,147.7c0,2.1-1.5,3.7-3.5,3.7c-2,0-3.6-1.5-3.6-3.6c0-2.2,1.6-3.9,3.6-3.9C40.3,144,41.8,145.7,41.8,147.7z"/>
	<path d="M47,210.4c2,0,3.5,1.6,3.5,3.7c0,2.1-1.7,3.7-3.8,3.6c-2-0.1-3.5-1.7-3.4-3.8C43.4,211.9,45,210.4,47,210.4z"/>
	<path d="M71.1,141.1c0-2,1.6-3.7,3.6-3.7c2,0,3.6,1.6,3.6,3.6c0,2.2-1.6,3.8-3.7,3.8C72.6,144.8,71.1,143.2,71.1,141.1z"/>
	<path d="M71.8,155.5c0-2.1,1.6-3.6,3.6-3.6c2,0,3.6,1.7,3.5,3.9c0,2-1.6,3.5-3.5,3.5C73.3,159.3,71.8,157.7,71.8,155.5z"/>
	<path d="M85.6,162c0.1-2,1.8-3.6,3.8-3.5c2.1,0.1,3.6,1.9,3.4,4c-0.1,1.9-1.8,3.4-3.7,3.4C87.1,165.9,85.5,164.1,85.6,162z"/>
	<path d="M76.6,112.5c-0.1,2-1.8,3.6-3.7,3.5c-2.1-0.1-3.5-1.8-3.4-4c0.1-2,1.7-3.5,3.6-3.4C75.1,108.6,76.7,110.4,76.6,112.5z"/>
	<path d="M49.5,174.4c-2.1,0-3.6-1.4-3.7-3.5c-0.1-2.1,1.5-3.8,3.6-3.8c2.1,0,3.5,1.5,3.5,3.6C52.9,172.9,51.5,174.4,49.5,174.4z"/>
	<path d="M59.7,91c0-2.1,1.5-3.7,3.5-3.7c2,0,3.6,1.6,3.7,3.6c0,2.2-1.5,3.8-3.6,3.8C61.2,94.7,59.7,93.1,59.7,91z"/>
	<path d="M48.2,181.5c2.1,0,3.5,1.5,3.5,3.7c0,2.1-1.4,3.6-3.5,3.7c-2.1,0-3.7-1.6-3.7-3.7C44.6,183.1,46.2,181.5,48.2,181.5z"/>
	<path d="M59.7,76.4c0.1-2.1,1.7-3.6,3.7-3.6c2,0.1,3.6,1.8,3.5,3.9c-0.1,2-1.7,3.5-3.8,3.4C61.1,80.1,59.6,78.5,59.7,76.4z"/>
	<path d="M74.5,76.1c0-2,1.7-3.7,3.6-3.6c1.9,0.1,3.6,1.8,3.5,3.8c0,2-1.7,3.7-3.6,3.7C76.1,79.9,74.5,78.2,74.5,76.1z"/>
	<path d="M48.5,127.3c0.1-2.1,1.7-3.6,3.7-3.5c1.9,0.1,3.5,1.8,3.5,3.8c-0.1,2.1-1.8,3.7-3.9,3.6C49.8,131,48.4,129.4,48.5,127.3z"
		/>
	<path d="M51,76c0,2.1-1.5,3.6-3.5,3.6c-2,0-3.6-1.5-3.6-3.6c0-2.2,1.5-3.7,3.7-3.7C49.6,72.4,51,73.9,51,76z"/>
	<path d="M78.2,202.5c-2.1,0-3.6-1.4-3.7-3.5c-0.1-2.2,1.5-3.8,3.6-3.8c2,0,3.5,1.6,3.6,3.6C81.7,201,80.2,202.5,78.2,202.5z"/>
	<path d="M40,129.6c1.9,0,3.6,1.8,3.6,3.7c0,2.1-1.8,3.8-3.8,3.7c-2-0.1-3.4-1.7-3.4-3.8C36.5,131.2,38.1,129.6,40,129.6z"/>
	<path d="M82,133.5c0-2.1,1.5-3.7,3.5-3.7c1.9,0,3.6,1.6,3.6,3.6c0.1,2.1-1.6,3.8-3.7,3.8C83.5,137.2,82,135.7,82,133.5z"/>
	<path d="M51,138.2c2,0,3.6,1.6,3.7,3.6c0,2.1-1.7,3.8-3.7,3.8c-2,0-3.5-1.6-3.5-3.7C47.4,139.8,49,138.2,51,138.2z"/>
	<path d="M83.4,90.5c0,2.1-1.4,3.7-3.4,3.8c-2.1,0.1-3.7-1.5-3.7-3.7c0-2.1,1.5-3.6,3.5-3.6C81.8,86.9,83.3,88.4,83.4,90.5z"/>
	<path d="M81,184.5c0,2.2-1.4,3.6-3.5,3.6c-2.1,0-3.5-1.5-3.6-3.6c0-2.1,1.5-3.7,3.5-3.7C79.6,180.8,81,182.2,81,184.5z"/>
	<path d="M47.7,196c2,0,3.6,1.6,3.6,3.7c0,2-1.6,3.6-3.6,3.6c-2.1,0-3.6-1.6-3.6-3.8C44.1,197.4,45.6,196,47.7,196z"/>
	<path d="M72.5,61.9c0-2.1,1.5-3.7,3.5-3.6c2,0,3.6,1.6,3.6,3.6c0,2.2-1.5,3.8-3.6,3.7C74,65.5,72.5,63.9,72.5,61.9z"/>
	<path d="M30.6,176.3c0-2.1,1.5-3.6,3.6-3.6c2.1,0,3.5,1.5,3.5,3.7c0,2.1-1.5,3.7-3.5,3.7C32.1,180.1,30.6,178.5,30.6,176.3z"/>
	<path d="M45.9,61.7c0-2.1,1.5-3.7,3.5-3.7c2,0,3.6,1.6,3.6,3.6c0,2.1-1.6,3.8-3.7,3.8C47.3,65.4,45.9,63.8,45.9,61.7z"/>
	<path d="M78.8,217c-2.1,0-3.5-1.4-3.5-3.6c0-2.2,1.5-3.7,3.6-3.7c2,0,3.5,1.6,3.5,3.7C82.3,215.5,80.9,217,78.8,217z"/>
	<path d="M94.6,201.7c2.1,0,3.5,1.4,3.6,3.5c0,2.2-1.4,3.8-3.6,3.8c-2,0-3.5-1.6-3.5-3.7C91.1,203.1,92.5,201.7,94.6,201.7z"/>
</g>
</svg>
