<?xml version="1.0" encoding="utf-8"?>
<!-- Generator: Adobe Illustrator 27.0.0, SVG Export Plug-In . SVG Version: 6.00 Build 0)  -->
<svg version="1.1" id="Слой_1" xmlns="http://www.w3.org/2000/svg" xmlns:xlink="http://www.w3.org/1999/xlink" x="0px" y="0px"
	 viewBox="0 0 595.3 841.9" style="enable-background:new 0 0 595.3 841.9;" xml:space="preserve">
<path d="M88.1,42.3c0,5.7-0.1,11.3-0.1,17c6.8,0,13.6,0,20.4-0.1c0,6.1,0.1,12.2,0.1,18.2c-7.5,1.1-15,2.3-22.5,3.4l0,0
	c0,0.1,3.8,20.9,5.3,30.8c3.7,23.9,1.8,25.7,2.6,61.4c0.3,14.4-0.1,28.8-0.4,43.2c-0.3,13.2-10.1,24.8-20.4,24.4
	c-9.7-0.4-19-11.8-19-23.9c-0.1-31.4-0.8-62.8,0.3-94.1c0.5-13.9,4.9-27.6,7.6-41.8C45.5,75,23.7,85.1,18.8,59.2
	c13.8,0,27.5,0,41.3,0c0-5.6,0-11.3,0-16.9c-13.7,0-26.2,0-39.8,0c3.8-6,7.9-10.4,12.8-13.7c5.3-3.6,12.7-6.9,32.6-7.9
	c10.5-0.5,25.1-0.5,42.6,2.2c0,6.5,0,12.9,0.1,19.4C101.7,42.3,94.9,42.3,88.1,42.3z"/>
</svg>
