<?xml version="1.0" encoding="utf-8"?>
<!-- Generator: Adobe Illustrator 27.0.0, SVG Export Plug-In . SVG Version: 6.00 Build 0)  -->
<svg version="1.1" id="Слой_1" xmlns="http://www.w3.org/2000/svg" xmlns:xlink="http://www.w3.org/1999/xlink" x="0px" y="0px"
	 viewBox="0 0 595.3 841.9" style="enable-background:new 0 0 595.3 841.9;" xml:space="preserve">
<style type="text/css">
	.st0{fill:#FFFFFF;}
</style>
<g>
	<path d="M205.5,177.4v11.8h-7.3c-11.3-0.5-10.7,7.7-10.1,15.2c1.8,20.9-6.1,37.3-20.7,51.9c-16.2,16.2-31.2,33.6-46.3,50.9
		c-13.9,16-15.5,33.7-5.2,49.1c9.4,14.1,26.5,20.7,42.9,16.5c5.5-1.4,10.4-3.9,14.5-7.2c10.5-8.7,12.4-21.2,14.3-33.1
		c1.1-6.5,2-16.6,0.2-29.1c-2-15.3-1-26.7,0-33.7c0.2-0.7,0.9-3.6,2.2-6.9c0,0,2.3-6.1,5.3-9.1c0,0,1.4-1.4,3-2
		c0.2-0.1,0.8-0.3,1.2-0.3c0.2,0,0.4-0.1,0.5-0.1c0.2,0,0.3,0,0.4,0c1.7,0,3.5,0,5.2,0v7.4h-0.5c-0.2,0.1-0.6,0.1-1,0.3
		c-0.2,0.2-0.4,0.4-0.7,0.7c0,0-0.5,0.6-0.9,1.2c-6.2,10.9-3.5,35.2-3.5,35.2c0.6,5.5,0.2,21.9-0.2,39.8
		c-0.5,23-14.1,40.6-36.3,47.3c-20.5,6.2-42.8-1.6-55.3-19.4c-12.6-18-13.2-41,0.8-58.4c14-17.5,29-34.3,45-50.1
		c16.5-16.2,27-33.5,24.2-57.9c-0.6-5.7,0.8-10.4,3.6-13.8c1.7-1.4,4.2-3.1,7.3-4.3c3.6-1.4,6.7-1.7,8.5-1.8c1-0.1,1.9-0.1,2.5-0.1
		H205.5z"/>
	<g>
		<g>
			<path d="M321.4,376.7c-3.4-4.3-1.5-10-1.2-16.9c0.2-5.6,1-11.3,2-16.9c-0.4-6.8-0.8-13.6-0.9-20.4c-0.1-12.9,0.3-25.9,0.3-38.8
				c0-0.6,0.3-1.1,0.8-1.3c0-34.6,0-69.2,0.1-103.8c0-12-4.6-17.7-17.2-17.5c-26,0.5-52.1,0.4-78.1,0.1
				c-12.6-0.2-17.1,5.3-16.9,17.6c0.4,29.6,0.2,59.2,0.2,88.8c0.1,3.9,0.1,4.9,0.2,4.9c0.1,0,0.3-3.8,0.3-3.8c0,0-0.5,9.9-0.5,19.8
				c0,5.4,0,10.7,0,16.1c3.1,20.8,2.9,42.1,1.1,63.1c0.5,5.2,1.1,10.4,1.2,15.7c0.9,0.9,2.1,1.5,3.7,1.9c8,0,16,0,24.1-0.3
				c7.6-0.3,15.2-1,22.7-1.5c7.3-0.4,14.8-1.1,22.1-1.1c6.6,0,12.8,2.6,19.3,3.2c0.9,0,1.8,0,2.7,0c0.8-0.2,1.6-0.4,2.4-0.5
				c2.3-0.4,4.8-0.6,7.1-0.1c3.5-1.1,4.9-3.5,5.5-7.4C322.1,377.5,321.8,377.2,321.4,376.7z M305.6,239.5c0.3,8.9-3.8,11.6-12,11.3
				c-9.7-0.3-19.4-0.1-29.1-0.1c-37.8,0-37.9,0-37.7-37.7c0.1-34.8-3.2-29.1,29-29.5c12.7-0.2,25.5,0.3,38.2-0.1
				c8.6-0.3,11.9,3.2,11.6,11.7C305.2,209.9,305.2,224.7,305.6,239.5z"/>
			<rect x="210.5" y="268.7" width="111.9" height="116.8"/>
		</g>
		<path class="st0" d="M308.1,190c-0.2,27.3-0.2,46.7-0.1,50.1c0,0.3,0.1,1.3-0.2,2.5c-0.7,3.3-3.1,5.3-3.7,5.8
			c-2.2,1.8-5.1,2.6-9.1,2.6c-18.5,0-37,0-55.6,0c-1.6,0-3.3-0.2-4.8-0.6c-5.2-1.3-8.2-5-8.3-10c-0.1-7.7,0-15.4,0-23.1
			c0-8.4-0.1-16.8,0-25.2c0-0.9,0.1-3,1.4-5.2c1.5-2.6,4.5-4.9,7.8-5.3c0.4-0.1,0.7-0.1,1-0.1c20.4,0,40.9,0,61.3,0
			c1.4,0,4.8,0.6,7.2,2.8c0.5,0.5,2.3,2.2,2.9,4.9C308,189.5,308.1,189.8,308.1,190z"/>
	</g>
</g>
</svg>
