<?xml version="1.0" encoding="utf-8"?>
<!-- Generator: Adobe Illustrator 27.0.0, SVG Export Plug-In . SVG Version: 6.00 Build 0)  -->
<svg version="1.1" id="Слой_1" xmlns="http://www.w3.org/2000/svg" xmlns:xlink="http://www.w3.org/1999/xlink" x="0px" y="0px"
	 viewBox="0 0 595.3 841.9" style="enable-background:new 0 0 595.3 841.9;" xml:space="preserve">
<style type="text/css">
	.st0{fill:#FFFFFF;}
</style>
<g>
	<path d="M161.4,113.5c0-6.6-0.1-13.2,0-19.8c0.1-3.3,0.3-6.8,4.7-7.2c4.2-0.4,5.9,2.2,6,5.9c0.1,14.8,0.1,29.7,0,44.5
		c0,2.8-1.2,5.2-4.7,5.5c-4.3,0.3-5.9-2.1-5.9-5.9C161.4,128.9,161.4,121.2,161.4,113.5z"/>
	<g>
		<path d="M286.9,272.5c-0.2,2.4-1.8,4.5-4,5.3c-2.2,0.9-4.8,0.4-6.6-1.1c-24.7-62-49.3-124.1-74-186.1c0.2-2.3,1.5-4.4,3.6-5.3
			c2.3-1.1,5.1-0.6,7,1.1C237.6,148.4,262.3,210.4,286.9,272.5z"/>
		<path d="M47.5,272c0.2,2.4,1.8,4.5,4,5.3c2.2,0.9,4.8,0.4,6.6-1.1c24.7-62,49.3-124.1,74-186.1c-0.2-2.3-1.5-4.4-3.6-5.3
			c-2.3-1.1-5.1-0.6-7,1.1C96.8,147.9,72.2,209.9,47.5,272z"/>
		<path d="M126.6,140.5c0,0.2,0.9,3.8,4.5,4.9c3.4,1.1,6.2-1.2,6.3-1.3c6-18.1,12.1-36.3,18.1-54.4c-0.1-0.3-1.2-3.5-4.5-4.6
			c-3.3-1.1-6,0.8-6.3,1C138.6,104.2,132.6,122.3,126.6,140.5z"/>
		<path d="M206.6,140.9c0,0.2-0.9,3.8-4.5,4.9c-3.4,1.1-6.2-1.2-6.3-1.3c-6-18.1-12.1-36.3-18.1-54.4c0.1-0.3,1.2-3.5,4.5-4.6
			c3.3-1.1,6,0.8,6.3,1C194.6,104.7,200.6,122.8,206.6,140.9z"/>
		<path d="M160.8,144.7c0.1,0.1,2,3.3,5.8,3.3c3.6,0,5.5-3,5.6-3.2c0.2-19.1,0.4-38.2,0.6-57.3c-0.2-0.3-2.2-2.9-5.7-3
			c-3.5,0-5.5,2.6-5.7,2.8C161.2,106.5,161,125.6,160.8,144.7z"/>
		<g>
			<path d="M212.9,73.4v4.2h-89.1c0-0.1-0.1-0.2-0.1-0.3v-4c0.8-2.5,3-4.5,3.9-5.4c3.9-3.7,8.9-4.3,29.3-4.4c5.4,0,7.5,0,12.5,0
				c25.3,0,30.9-0.6,37.2,3.7C208.4,68.5,211.6,70.7,212.9,73.4z"/>
			<ellipse cx="169.5" cy="63.7" rx="14.4" ry="12.4"/>
		</g>
	</g>
	<g>
		<path d="M166,271.6c-18.5,0-37-0.2-55.4,0.1c-11.7,0.2-15.2-5.5-16.8-17c-3.9-27.6,15.4-45.9,24.5-68.2c2.2-5.4,8.6-6.1,14.2-6.1
			c22.8,0,45.7,0,68.5,0c5,0,11,0,13.3,4.6c12.1,23.5,30.8,44.9,25.3,74.7c-1.9,9.9-8.2,12-16.5,11.9
			C204.1,271.6,185,271.6,166,271.6z M163.3,218.7c0,0.1,0,0.3,0,0.4c10.3,0,20.6,0.3,30.9-0.1c4.6-0.2,10.8,1.2,14-2
			c2.4-2.4,2.1-5.9,2.1-6.4c-0.4-7.3-9.8-12-14.8-14.6c-13.5-6.8-26.4-6.7-34.4-6.6c-8.2,0.1-13.6,0.2-20.3,3.2
			c-8.5,3.8-18.5,12-18,20.3c0.1,0.9,0.1,3.3,1.9,4.8c2.9,2.6,8.6,0.7,12.5,0.9C145.9,219,154.6,218.7,163.3,218.7z M129,237.4
			c-0.7-3.6-3.1-7.3-7.9-7.7c-5.8-0.5-9,2.9-9,8.9c0,5.4,3.3,8.1,8.1,8.1C125.1,246.6,128.2,243.7,129,237.4z M213.5,246.8
			c5.4-0.3,8.3-3.4,8.3-8.2c0.1-5.6-3.1-9.3-8.7-9.1c-4.6,0.2-8.1,3.3-8.3,8.2C204.6,243.5,208.4,246.2,213.5,246.8z"/>
		<path class="st0" d="M201.4,220.1c-24,0.1-47.9,0.1-71.9,0.2c-2.6-0.3-7.5-1.2-9.3-4.6c0,0-3.6-6.5,6.3-18.2
			c0.4-0.4,0.6-0.7,0.7-0.8c3.5-4.1,8.1-6.8,37.5-7.4c31.6-0.6,36.5,2.4,39.9,6.2c4.4,4.7,11.9,14.5,8.6,20.3
			C210.7,220,203.3,220.1,201.4,220.1z"/>
		<ellipse class="st0" cx="120.4" cy="238.3" rx="9.2" ry="8.8"/>
		<ellipse class="st0" cx="213.8" cy="238.3" rx="9.2" ry="8.8"/>
	</g>
	<path d="M131.9,274.6v15.1c-1.4,5.5-6.4,9.1-11.9,8.9c-5.1-0.2-9.4-3.8-10.7-8.9v-15.1H131.9z"/>
	<path d="M225.2,274.7v15.1c-1.4,5.5-6.4,9.1-11.9,8.9c-5.1-0.2-9.4-3.8-10.7-8.9v-15.1H225.2z"/>
</g>
</svg>
