<?xml version="1.0" encoding="utf-8"?>
<!-- Generator: Adobe Illustrator 27.0.0, SVG Export Plug-In . SVG Version: 6.00 Build 0)  -->
<svg version="1.1" id="Слой_1" xmlns="http://www.w3.org/2000/svg" xmlns:xlink="http://www.w3.org/1999/xlink" x="0px" y="0px"
	 viewBox="0 0 595.3 841.9" style="enable-background:new 0 0 595.3 841.9;" xml:space="preserve">
<style type="text/css">
	.st0{fill:#FFFFFF;}
	.st1{fill:none;stroke:#000000;stroke-miterlimit:10;}
	.st2{fill:none;stroke:#FFFFFF;stroke-width:4;stroke-miterlimit:10;}
</style>
<g>
	<g>
		<path d="M322.5,465.9h-33.8c-0.1-2.2-0.5-7.7-4.8-13.3c-4.4-5.8-10.4-8.3-12.7-9.2c17.1,0.1,34.2,0.2,51.4,0.3V465.9z"/>
		<rect x="288.6" y="465.8" width="33.9" height="3.8"/>
	</g>
	<rect x="70.9" y="423" width="11.2" height="46.5"/>
	<g>
		<g>
			<path d="M383.5,323.4c15.9,0.1,41.6,0,61.4,0.1c8.6,0,13.9,3.1,13.9,8.2c0.2,11.1,0.1,22.1,0.2,33.2c0,5.6,0,11.3,0,17.1
				c-23.5,0-46.9,0.1-70.4,0.1L383.5,323.4z"/>
			<rect x="353.2" y="323.5" width="54.6" height="58.5"/>
		</g>
		<g>
			<path d="M338.4,323.4c-11.4,0.1-29.9,0-44.1,0.1c-6.2,0-10,3.1-10,8.2c-0.1,11.1-0.1,22.1-0.1,33.2c0,5.6,0,11.3,0,17.1
				c16.8,0,33.7,0.1,50.5,0.1L338.4,323.4z"/>
			<rect x="321" y="323.5" transform="matrix(-1 -1.224647e-16 1.224647e-16 -1 681.1246 705.4619)" width="39.2" height="58.5"/>
		</g>
		<g>
			<path d="M383.5,440.4c15.9-0.1,41.6,0,61.4-0.1c8.6,0,13.9-3.1,13.9-8.2C459,421.1,459,410,459,399c0-5.6,0-11.3,0-17.1
				c-23.5,0-46.9-0.1-70.4-0.1L383.5,440.4z"/>
			<rect x="353.2" y="381.8" width="54.6" height="58.5"/>
		</g>
		<g>
			<path d="M359.7,440.4c-15.9-0.1-41.6,0-61.4-0.1c-8.6,0-13.9-3.1-13.9-8.2c-0.2-11.1-0.1-22.1-0.2-33.2c0-5.6,0-11.3,0-17.1
				c23.5,0,46.9-0.1,70.4-0.1L359.7,440.4z"/>
			<rect x="335.4" y="381.8" transform="matrix(-1 -1.224647e-16 1.224647e-16 -1 725.428 822.1196)" width="54.6" height="58.5"/>
		</g>
	</g>
	<g>
		<g>
			<g>
				<g>
					<path d="M256.1,323.4c15.9,0.1,41.6,0,61.4,0.1c8.6,0,13.9,3.1,13.9,8.2c0.2,11.1,0.1,22.1,0.2,33.2c0,5.6,0,11.3,0,17.1
						c-23.5,0-46.9,0.1-70.4,0.1L256.1,323.4z"/>
					<rect x="225.8" y="323.5" width="54.6" height="58.5"/>
				</g>
				<g>
					<path d="M211,323.4c-11.4,0.1-29.9,0-44.1,0.1c-6.2,0-10,3.1-10,8.2c-0.1,11.1-0.1,22.1-0.1,33.2c0,5.6,0,11.3,0,17.1
						c16.8,0,33.7,0.1,50.5,0.1L211,323.4z"/>
					
						<rect x="193.6" y="323.5" transform="matrix(-1 -1.224647e-16 1.224647e-16 -1 426.3587 705.4413)" width="39.2" height="58.5"/>
				</g>
				<g>
					<path d="M256.1,440.4c15.9-0.1,41.6,0,61.4-0.1c8.6,0,13.9-3.1,13.9-8.2c0.2-11.1,0.1-22.1,0.2-33.2c0-5.6,0-11.3,0-17.1
						c-23.5,0-46.9-0.1-70.4-0.1L256.1,440.4z"/>
					<rect x="225.8" y="381.8" width="54.6" height="58.5"/>
				</g>
				<g>
					<path d="M232.3,440.4c-15.9-0.1-41.6,0-61.4-0.1c-8.6,0-13.9-3.1-13.9-8.2c-0.2-11.1-0.1-22.1-0.2-33.2c0-5.6,0-11.3,0-17.1
						c23.5,0,46.9-0.1,70.4-0.1L232.3,440.4z"/>
					<rect x="208" y="381.8" transform="matrix(-1 -1.224647e-16 1.224647e-16 -1 470.6621 822.0991)" width="54.6" height="58.5"/>
				</g>
			</g>
			<g>
				<g>
					<path d="M413.3,323.5c15.2,0.1,39.8,0,58.7,0.1c8.2,0,13.3,3.1,13.3,8.2c0.1,11.1,0.1,22.1,0.2,33.2c0,5.6,0,11.3,0,17.1
						c-22.5,0-44.9,0.1-67.4,0.1L413.3,323.5z"/>
					<rect x="384.3" y="323.5" width="52.3" height="58.5"/>
				</g>
				<g>
					<path d="M370.2,323.5c-10.9,0.1-28.6,0-42.2,0.1c-5.9,0-9.5,3.1-9.6,8.2c-0.1,11.1-0.1,22.1-0.1,33.2c0,5.6,0,11.3,0,17.1
						c16.1,0,32.2,0.1,48.4,0.1L370.2,323.5z"/>
					
						<rect x="353.5" y="323.5" transform="matrix(-1 -1.224647e-16 1.224647e-16 -1 744.5165 705.5571)" width="37.5" height="58.5"/>
				</g>
				<g>
					<path d="M413.3,440.4c15.2-0.1,39.8,0,58.7-0.1c8.2,0,13.3-3.1,13.3-8.2c0.1-11.1,0.1-22.1,0.2-33.2c0-5.6,0-11.3,0-17.1
						c-22.5,0-44.9-0.1-67.4-0.1L413.3,440.4z"/>
					<rect x="384.3" y="381.8" width="52.3" height="58.5"/>
				</g>
				<g>
					<path d="M390.6,440.4c-15.2-0.1-39.8,0-58.7-0.1c-8.2,0-13.3-3.1-13.3-8.2c-0.1-11.1-0.1-22.1-0.2-33.2c0-5.6,0-11.3,0-17.1
						c22.5,0,44.9-0.1,67.4-0.1L390.6,440.4z"/>
					
						<rect x="367.3" y="381.8" transform="matrix(-1 -1.224647e-16 1.224647e-16 -1 786.9127 822.2147)" width="52.3" height="58.5"/>
				</g>
			</g>
		</g>
		<g>
			<g>
				<g>
					<path d="M486.2,469.8c-64-0.1-128-0.2-192-0.3c-0.3-8.7-0.5-17.3-0.8-26h192.8V469.8z"/>
				</g>
				<g>
					<g>
						<g>
							<g>
								<path d="M148.5,373.4c-0.1,32-0.3,64.1-0.4,96.1c-0.7-0.1-1.9-0.3-3.3-0.3c-1.9,0.1-2.7,0.5-3.2,0c-0.6-0.6,0-1.6,0.1-3.4
									c0.1-1.4-0.4-3-1.4-6.3c-0.7-2.4-1.5-4.3-1.7-4.6c-3.3-7.3-39-6.9-49-2.7c-0.1,0.2-0.3,0.3-0.4,0.5c-1.1,1.5-1.9,3-2.5,4.5
									c-0.1,0.7-0.2,1.6-0.4,2.4c-0.1,0.7-0.3,1.5-0.7,2.4c-0.5,1.3-0.8,1.4-1,2.2c0,0.1-0.1,0.6-0.4,1.1
									c-0.1,0.1-0.2,0.2-0.2,0.3c0.2,0,0.3,0.1,0.5,0.1v3.7c-4.5,0-9,0-13.6,0c0-1.2,0-2.4,0-3.7c0-0.5,0-7,0-7.5
									c0-12.2,0-12.1,0-15.1c0-14.8,0.1-13.4,0-14.9c-0.1-2.9,0.1-5.9,0-8.8c0-0.6-0.1-2.1,0.3-3.9c0.1-0.7,0.4-1.6,0.9-3
									c1-2.6,2.4-4.2,7.3-16.2c5.8-14.3,7.2-20.2,13-22.6c1.5-0.6,2.4-0.6,8.7-0.6c7.6,0,15.2-0.2,22.8,0
									C129.8,373.4,138.2,373.5,148.5,373.4z"/>
							</g>
							<g>
								<g>
									<g>
										<path d="M252.6,470c-37-0.1-73.9-0.2-110.9-0.3c-0.2-8.7-0.3-17.3-0.5-26h111.4V470z"/>
									</g>
									<path class="st0" d="M263,498.2c-15.6,0.7-28.8-12.3-28.8-28.3c0-16.5,12.5-28.9,29-29c14.9-0.1,29.9,11.5,28.6,31.4
										C291.1,485.7,279.1,499,263,498.2z M248.7,469.8c4.1,5,9.4,7.9,13,6.5c6.8-2.5,6.1-19.6,1.9-21.2
										C258.9,453.3,248.8,469.9,248.7,469.8c0,0,9.5-16.4,14.8-14.7c6,1.9,6,27-0.1,29C259.3,485.4,252.8,476.2,248.7,469.8z"/>
								</g>
								<g>
									<path d="M263.3,494.8c-13.8,0.6-25.5-10.9-25.5-25.1c0-14.6,11.1-25.7,25.8-25.7c13.3-0.1,26.5,10.2,25.4,27.8
										C288.3,483.7,277.6,495.5,263.3,494.8z M276.1,469.6c0.3-7.4-5.5-12.4-12.3-13c-6.1-0.6-13.6,6.8-13.2,13.1
										c0.5,6.8,5.4,12.4,13,12.7C269.9,482.5,276.9,475.6,276.1,469.6z"/>
									<circle class="st0" cx="263.7" cy="470" r="13.7"/>
								</g>
							</g>
						</g>
						<g>
							<g>
								<path class="st0" d="M112.4,498.3c-15.6,0.7-28.8-12.3-28.8-28.3c0-16.5,12.5-28.9,29-29c14.9-0.1,29.9,11.5,28.6,31.4
									C140.5,485.8,128.5,499.1,112.4,498.3z M98.1,469.9c4.1,5,9.4,7.9,13,6.5c6.8-2.5,6.1-19.6,1.9-21.2
									C108.3,453.4,98.2,469.9,98.1,469.9c0,0,9.5-16.4,14.8-14.7c6,1.9,6,27-0.1,29C108.7,485.5,102.1,476.2,98.1,469.9z"/>
								<g>
									<path d="M112.6,494.6C98.7,495.2,87,483.7,87,469.5c0-14.6,11.1-25.7,25.8-25.7c13.3-0.1,26.5,10.2,25.4,27.8
										C137.5,483.5,126.8,495.3,112.6,494.6z M125.3,469.4c0.3-7.4-5.5-12.4-12.3-13c-6.1-0.6-13.6,6.8-13.2,13.1
										c0.5,6.8,5.4,12.4,13,12.7C119.1,482.3,126.1,475.5,125.3,469.4z"/>
									<circle class="st0" cx="112.9" cy="469.8" r="13.7"/>
								</g>
							</g>
							<g>
								<path d="M170.6,466.1h-29.4c-0.3-2.5-1.1-7.7-4.8-13c-3.9-5.6-8.8-8.3-11.1-9.3c15.1,0.1,30.2,0.1,45.3,0.2V466.1z"/>
								<rect x="141.1" y="466" width="29.4" height="3.8"/>
							</g>
						</g>
					</g>
					<g>
						<path class="st1" d="M106.9,428.2"/>
						<g>
							<path class="st0" d="M87.8,420.5c-0.1-1.9,0.1-3.9,0-5.8c0-0.4,0-1.3,0.2-2.6c0.1-0.5,0.2-1.1,0.5-2
								c0.6-1.7,1.4-2.8,4.2-10.7c3.4-9.4,4.2-13.3,7.5-14.8c0.9-0.4,1.4-0.4,5-0.4c4.4,0,8.8-0.1,13.2,0c3.4,0.1,8.3,0.2,14.3,0.1
								c0,11.8-0.1,23.7-0.1,35.5"/>
							<rect x="89.7" y="408.4" class="st0" width="42.9" height="12.1"/>
							<rect x="87.7" y="418.4" class="st0" width="4.8" height="2.1"/>
						</g>
					</g>
				</g>
			</g>
			<g>
				<path class="st0" d="M416.6,498.2c-15.6,0.7-28.8-12.3-28.8-28.3c0-16.5,12.5-28.9,29-29c14.9-0.1,29.9,11.5,28.6,31.4
					C444.6,485.7,432.6,499,416.6,498.2z M402.3,469.8c4.1,5,9.4,7.9,13,6.5c6.8-2.5,6.1-19.6,1.9-21.2
					C412.4,453.3,402.3,469.9,402.3,469.8c0,0,9.5-16.4,14.8-14.7c6,1.9,6,27-0.1,29C412.9,485.4,406.3,476.2,402.3,469.8z"/>
				<g>
					<path d="M416.8,494.1c-13.8,0.6-25.5-10.9-25.5-25.1c0-14.6,11.1-25.7,25.8-25.7c13.3-0.1,26.5,10.2,25.4,27.8
						C441.7,483.1,431,494.9,416.8,494.1z M429.5,468.9c0.3-7.4-5.5-12.4-12.3-13c-6.1-0.6-13.6,6.8-13.2,13.1
						c0.5,6.8,5.4,12.4,13,12.7C423.3,481.8,430.4,475,429.5,468.9z"/>
					<circle class="st0" cx="417.1" cy="469.3" r="13.7"/>
				</g>
			</g>
		</g>
	</g>
	<g>
		<g>
			<g>
				<line class="st2" x1="360.1" y1="415.4" x2="360.1" y2="427.7"/>
				<line class="st2" x1="360.1" y1="440.1" x2="360.1" y2="452.5"/>
				<line class="st2" x1="360.1" y1="464.7" x2="360.1" y2="477.1"/>
				<line class="st2" x1="360.1" y1="489.3" x2="360.1" y2="501.7"/>
			</g>
			<g>
				<line class="st2" x1="360.1" y1="489.2" x2="360.1" y2="501.6"/>
			</g>
		</g>
		<line class="st2" x1="360.3" y1="316.9" x2="360.3" y2="329.3"/>
		<g>
			<line class="st2" x1="360.3" y1="341.5" x2="360.3" y2="353.8"/>
			<line class="st2" x1="360.3" y1="366.2" x2="360.3" y2="378.6"/>
			<line class="st2" x1="360.3" y1="390.8" x2="360.3" y2="403.2"/>
			<line class="st2" x1="360.3" y1="415.4" x2="360.3" y2="427.8"/>
		</g>
	</g>
</g>
</svg>
