<?xml version="1.0" encoding="utf-8"?>
<!-- Generator: Adobe Illustrator 27.0.0, SVG Export Plug-In . SVG Version: 6.00 Build 0)  -->
<svg version="1.1" id="Слой_1" xmlns="http://www.w3.org/2000/svg" xmlns:xlink="http://www.w3.org/1999/xlink" x="0px" y="0px"
	 viewBox="0 0 595.3 841.9" style="enable-background:new 0 0 595.3 841.9;" xml:space="preserve">
<style type="text/css">
	.st0{fill:#FFFFFF;}
</style>
<g>
	<g>
		<g>
			<g>
				<path d="M94.2,59.4c0,7.4,0,11.1,0,14.1c-0.1,3.3-0.2,5.6-0.3,7.4c-0.1,1.6-0.2,2.8-0.2,3.1c-0.2,1.8-1.1,6.3-7.3,15
					c-1,1.3-1.9,2.8-2.8,4.6c-2.9,6.2-2.9,12.2-2.5,15.6v2c-0.4,27.5-0.1,55.1-0.2,82.6c0,6.5,2.2,15.5-8.6,15.3
					c-0.6,0-1.2,0-1.7-0.1c-0.1,0-0.2,0-0.2-0.1c-0.3,0-0.6-0.1-0.8-0.2c-0.3-0.1-0.6-0.2-0.8-0.2c-5.6-2.2-4.1-9.2-4.1-14.7
					c-0.1-27.5,0.1-55.1-0.2-82.7V119c0.4-3.4,0.4-9.4-2.6-15.7c-0.8-1.7-1.8-3.2-2.7-4.5c-5.1-6-6.7-11.4-7.3-14.9
					c-0.3-1.4-0.4-4.4-0.5-10.3c-0.1-4.6-0.1-9.2-0.1-13.8c0-1.5,0-3.1,0-4.6c0.1-3.8,0.2-7.5,0.3-11.2V66h0.1V40.5
					c0.2-1.3,1-2.5,2-3.7c0.8-1.2,1.7-2.4,2.4-3.6c0.1,0.1,0.3,0.2,0.4,0.2c0-0.1,0.1-0.1,0.1-0.2c1.2,0.6,2.3,1.2,3.5,1.7v0.4
					c0,8.6-0.1,17.1,0.1,25.7v1.9c0,0.6,0,1.2,0,1.9c0,0,0,0.1,0,0.1c0.2,2.1,2.3,4.1,3.5,6.2c0.6,0,1.1,0,1.7,0
					c1.2-2.7,1.8-3.8,2.1-4.2c0.1-0.1,0.5-0.6,0.7-1.3c0.1-0.2,0.1-0.4,0.2-0.6c0-0.1,0.1-0.2,0.1-0.3c0,0,0-0.1,0-0.1
					c0.6-6.4,0-12.9,0.4-19.4c-0.5,6,0,12.1-0.4,18.1V33h8.6v30.3c-0.4-5.8,0-11.7-0.4-17.5c0-0.7,0-1.4-0.1-2.1
					c-0.3-3.2-2.3-6.3-3.6-9.4c-0.1,0.2-0.2,0.4-0.3,0.6c1.4,3.1,3.5,6.1,3.8,9.3c0,0.5,0,1,0.1,1.5c0.3,6.2-0.2,12.5,0.4,18.6v2.1
					c-0.3-0.5-0.5-1.1-0.8-1.6c0.3,0,0.6,0,0.8,0c0,0,0,0,0,0.1v0c0.2,1.1,0.7,2.5,1.7,3.9c0.8,1.1,1.6,2.2,2.8,2.2
					c1.5-0.1,2.3-2.1,2.4-2.2c0.5-1.6,0.9-2.8,1.2-3.8c0-0.1,0-0.1,0-0.1c0-1.3,0-2.5,0.1-3.7c0.2-8.6,0.1-17.2,0.1-25.8
					c0,0,0,0-0.1,0c0,0,0,0-0.1,0c0,3,0,6,0.1,9V55c0,1.5-0.1,3.1-0.1,4.7V32.9h8.7v7.7c-0.1-1-0.6-2-1.4-2.9
					c0.8,1.2,1.3,2.4,1.4,3.6V66c-0.2-1.9-0.3-3.9-0.5-5.8c0.3-15.1,0.4-19,0.5-19c0,0,0,0.4,0.2,8.1c0.1,2.2,0.1,3.5,0.1,5.4
					C94.2,56.8,94.2,58.4,94.2,59.4z"/>
				<g>
					<rect x="68.4" y="33" width="8.7" height="31.8"/>
					<path d="M51.2,66.3c0.1-11.1,0.1-22.1,0.2-33.2H60c0,1.2,0,2.9-0.2,5c-0.4,5.8-1.4,6.9-3.1,15.4c-1.4,6.8-1.8,10.7-5,12.6
						C51.4,66.1,51.3,66.2,51.2,66.3z"/>
					<rect x="85.2" y="32.9" width="8.7" height="31.8"/>
				</g>
			</g>
			<path class="st0" d="M68.4,63.5c0,4.6-1.9,8.3-4.2,8.3c-1.8,0-3.7-3.7-4.1-6.6c0-0.3-0.1-0.9-0.1-1.7c0.1-3.6,2.1-8.3,4.2-8.3
				C66.5,55.2,68.4,58.9,68.4,63.5z"/>
			<path class="st0" d="M85.3,63.5c0,4.6-1.9,8.3-4.2,8.3c-1.8,0-3.7-3.7-4.1-6.6c0-0.3-0.1-0.9-0.1-1.7c0.1-3.6,2.1-8.3,4.2-8.3
				C83.4,55.2,85.3,58.9,85.3,63.5z"/>
		</g>
		<rect x="68.4" y="32.7" width="8.7" height="36.5"/>
		<rect x="85.1" y="33" width="8.7" height="36.5"/>
		<rect x="51.4" y="32.8" width="8.7" height="36.5"/>
	</g>
	<path d="M157.1,128.9c0,25.6,0,51.2,0,76.8c0,6.4,0.3,13.4-8.7,13.2c-8.3-0.1-7.9-6.8-7.9-12.7c0-17.5-0.1-34.9,0.1-52.4
		c0.1-6.2-0.8-10-7.4-13.5c-4.9-2.6-9.3-10.8-9.5-16.7c-1-24.4-0.7-48.9-0.3-73.3c0.2-12,7.5-18.9,17.8-18.4
		c9.6,0.5,15.8,7.7,15.9,19C157.2,76.9,157.1,102.9,157.1,128.9z"/>
</g>
</svg>
