<?xml version="1.0" encoding="utf-8"?>
<!-- Generator: Adobe Illustrator 27.0.0, SVG Export Plug-In . SVG Version: 6.00 Build 0)  -->
<svg version="1.1" id="Слой_1" xmlns="http://www.w3.org/2000/svg" xmlns:xlink="http://www.w3.org/1999/xlink" x="0px" y="0px"
	 viewBox="0 0 595.3 841.9" style="enable-background:new 0 0 595.3 841.9;" xml:space="preserve">
<g>
	<path d="M118.8,84.6c-13.1,0-26,0-38.9,0c-1.8-9.2-0.3-11.6,8.2-12c7.1-0.3,14.3-0.1,21.4-0.1C117.4,72.6,120.8,76.2,118.8,84.6z"
		/>
	<g>
		<ellipse cx="201.6" cy="66.2" rx="6.8" ry="3.7"/>
		<g>
			<g>
				<g>
					<g>
						<path d="M194.7,109.4c-41-0.3-82.1-0.5-123.1-0.8c-0.1,6.8-0.2,13.5-0.3,20.3c-4.3,0-8.2,0-13.3,0c0-6.7,0-12.2,0.1-16
							c0.1-6.9,0.1-9.7,0.1-15.3c0-1.8,0-3.1,0-8.6c0-4.2,0-6.4,0-8.4c0-6.9,0-7.4,0-11.5c0-1.1,0-3.2,0-5.8c0,0,0-2,0-2.9
							c0,0,0-2.7,0-2.7c0.1,0.1,0.2,0.2,0.4,0.3c1.3,0.5,2.4-2.2,4.3-2.2c1.1,0,1.4,0.6,3.3,1c0.3,0.1,0.6,0.1,1.1,0
							c1.5-0.3,2.4-1.2,3.3-0.7c0.3,0.1,0.6,0.5,0.8,0.9c0.3,0.5,0.2,1.1,0.2,1.2c-0.1,1-0.1,12.9,0.1,29.7c41,0,82.1,0,123.1,0
							c0-1.6,0-2.9,0-3.8c0-2.6-0.1-4.1,0-6.4c0,0,0-0.9,0.1-3.2c0.1-1.5,0.1-2.2,0.2-2.4c0.9-1.7,4.2-1.7,6.4-1.5
							c0.9-2.9,2.7-4.7,4-4.5c1.7,0.3,2.5,3.7,2.6,4.5c0.5,2.2,0.2,4,0.2,4.1c-0.5,3.2-0.5,20.8,0.2,54.1c-4.6-0.3-9.1-0.5-13.7-0.8
							c0-1.7,0-3.3,0-5C194.7,118.4,194.7,113.9,194.7,109.4z"/>
					</g>
					<rect x="58.2" y="55.7" width="13.5" height="73.1"/>
				</g>
				<ellipse cx="64.9" cy="55.9" rx="6.7" ry="3.7"/>
			</g>
			<rect x="194.7" y="66" width="13.7" height="62.9"/>
		</g>
	</g>
</g>
</svg>
