<?xml version="1.0" encoding="utf-8"?>
<!-- Generator: Adobe Illustrator 27.0.0, SVG Export Plug-In . SVG Version: 6.00 Build 0)  -->
<svg version="1.1" id="Слой_1" xmlns="http://www.w3.org/2000/svg" xmlns:xlink="http://www.w3.org/1999/xlink" x="0px" y="0px"
	 viewBox="0 0 841.9 595.3" style="enable-background:new 0 0 841.9 595.3;" xml:space="preserve">
<style type="text/css">
	.st0{fill:#FFFFFF;}
	.st1{fill:none;stroke:#000000;stroke-miterlimit:10;}
</style>
<g>
	<g>
		<g>
			<g>
				<path d="M291.5,51.2c22.3,0.2,58.2,0,85.9,0.1c12,0.1,19.4,5,19.5,13.2c0.2,17.9,0.2,35.8,0.3,53.8c0,9.1,0,18.2,0,27.7
					c-32.9,0.1-65.7,0.1-98.6,0.2L291.5,51.2z"/>
				<rect x="249" y="51.3" width="76.5" height="94.9"/>
			</g>
			<g>
				<path d="M228.3,51.2c-16,0.2-41.8,0-61.7,0.1c-8.6,0.1-13.9,5-14,13.2c-0.2,17.9-0.2,35.8-0.2,53.8c0,9.1,0,18.2,0,27.7
					c23.6,0.1,47.2,0.1,70.8,0.2L228.3,51.2z"/>
				<rect x="203.9" y="51.3" transform="matrix(-1 -1.224647e-16 1.224647e-16 -1 462.7235 197.3952)" width="54.9" height="94.9"/>
			</g>
			<g>
				<path d="M291.6,186.1c22.3-0.2,58.2,0,85.9-0.1c12-0.1,19.4-5,19.5-13.2c0.2-17.9,0.2-35.8,0.3-53.8c0-9.1,0-18.2,0-27.7
					c-32.9-0.1-65.7-0.1-98.6-0.2L291.6,186.1z"/>
				<rect x="249.1" y="91.2" width="76.5" height="94.9"/>
			</g>
			<g>
				<path d="M258.3,186c-22.3-0.2-58.2,0-85.9-0.1c-12-0.1-19.4-5-19.5-13.2c-0.2-17.9-0.2-35.8-0.3-53.8c0-9.1,0-18.2,0-27.7
					c32.9-0.1,65.7-0.1,98.6-0.2L258.3,186z"/>
				<rect x="224.2" y="91.1" transform="matrix(-1 -1.224647e-16 1.224647e-16 -1 524.9187 277.0349)" width="76.5" height="94.9"/>
			</g>
		</g>
		<g>
			<path d="M392.8,226.6h-48.6c-0.1-3.2-0.8-11.1-6.9-19.2c-6.4-8.3-14.9-12-18.3-13.2c24.6,0.1,49.3,0.3,73.9,0.4V226.6z"/>
			<rect x="344.1" y="226.5" width="48.7" height="5.5"/>
		</g>
		<g>
			<path d="M292.4,232.5c-53.2-0.1-106.4-0.3-159.5-0.4c-0.2-12.4-0.5-24.9-0.7-37.3h160.2V232.5z"/>
		</g>
		<g>
			<path d="M142.6,93.6c-0.2,46.1-0.4,92.2-0.5,138.2c-1.1-0.2-2.7-0.4-4.7-0.4c-2.7,0.2-3.9,0.7-4.6,0c-0.9-0.8,0-2.2,0.2-4.9
				c0.2-2-0.6-4.4-2-9c-1.1-3.5-2.2-6.2-2.4-6.6c-4.8-10.5-56.1-9.9-70.4-3.8c-0.2,0.3-0.4,0.5-0.6,0.7c-1.5,2.2-2.7,4.4-3.6,6.4
				c-0.1,1-0.3,2.2-0.6,3.5c-0.2,1-0.5,2.1-1,3.5c-0.7,1.8-1.2,2.1-1.4,3.1c0,0.2-0.2,0.9-0.6,1.6c-0.1,0.2-0.3,0.3-0.3,0.4
				c0.2,0.1,0.5,0.1,0.7,0.2v5.4c-6.5,0-13,0-19.5,0c0-1.8,0-3.5,0-5.3c0-0.7,0-10.1,0-10.8c0-17.6,0-17.4,0-21.7
				c0-21.3,0.1-19.2,0-21.5c-0.2-4.2,0.2-8.5,0-12.7c0-0.9-0.1-3,0.4-5.6c0.2-1,0.5-2.3,1.3-4.3c1.4-3.7,3.4-6,10.5-23.3
				c8.4-20.5,10.4-29,18.7-32.4c2.2-0.9,3.4-0.9,12.5-0.8c10.9,0.1,21.9-0.3,32.8,0C115.7,93.6,127.7,93.8,142.6,93.6z"/>
		</g>
		<g>
			<path class="st0" d="M90.7,273.2c-22.4,0.9-41.4-17.7-41.4-40.7c0-23.7,18-41.6,41.7-41.7c21.5-0.1,42.9,16.5,41.2,45.1
				C131,255.2,113.8,274.3,90.7,273.2z M70.1,232.3c5.9,7.2,13.5,11.3,18.6,9.4c9.7-3.6,8.8-28.2,2.7-30.5
				C84.7,208.6,70.2,232.4,70.1,232.3c-0.1-0.1,13.7-23.6,21.3-21.1c8.7,2.8,8.6,38.9-0.2,41.7C85.3,254.8,75.9,241.5,70.1,232.3z"
				/>
			<g>
				<path d="M90.9,268c-19.9,0.8-36.7-15.7-36.7-36.2c0-21,16-37,37-37c19.1-0.1,38.1,14.7,36.6,40C126.7,252,111.4,269,90.9,268z
					 M109.2,231.7c0.4-10.6-7.9-17.8-17.6-18.8c-8.8-0.9-19.6,9.8-18.9,18.8c0.7,9.8,7.8,17.8,18.8,18.2
					C100.3,250.3,110.4,240.4,109.2,231.7z"/>
				<circle class="st0" cx="91.3" cy="232.3" r="19.6"/>
			</g>
		</g>
		<g>
			<path d="M174.4,226.9H132c-0.4-3.6-1.6-11.1-7-18.8c-5.6-8-12.6-11.9-15.9-13.4c21.7,0.1,43.5,0.2,65.2,0.2V226.9z"/>
			<rect x="132" y="226.8" width="42.3" height="5.5"/>
		</g>
		<path class="st0" d="M307.3,273.1c-22.4,0.9-41.4-17.7-41.4-40.7c0-23.7,18-41.6,41.7-41.7c21.5-0.1,42.9,16.5,41.2,45.1
			C347.7,255.2,330.4,274.3,307.3,273.1z M286.8,232.3c5.9,7.2,13.5,11.3,18.6,9.4c9.7-3.6,8.8-28.2,2.7-30.5
			C301.4,208.6,286.8,232.4,286.8,232.3c-0.1-0.1,13.7-23.6,21.3-21.1c8.7,2.8,8.6,38.9-0.2,41.7C302,254.7,292.6,241.5,286.8,232.3
			z"/>
		<g>
			<path d="M307.8,268.2C287.9,269,271,252.5,271,232c0-21,16-37,37-37c19.1-0.1,38.1,14.7,36.6,40
				C343.6,252.3,328.3,269.2,307.8,268.2z M326.1,231.9c0.4-10.6-7.9-17.8-17.6-18.8c-8.8-0.9-19.6,9.8-18.9,18.8
				c0.7,9.8,7.8,17.8,18.8,18.2C317.2,250.5,327.3,240.6,326.1,231.9z"/>
			<circle class="st0" cx="308.2" cy="232.5" r="19.6"/>
		</g>
	</g>
	<rect x="31" y="164.9" width="16.1" height="66.9"/>
	<g>
		<path class="st1" d="M83.9,174.4"/>
		<g>
			<path class="st0" d="M56.3,163.3c-0.1-2.8,0.1-5.6,0-8.3c0-0.6-0.1-1.9,0.2-3.7c0.1-0.7,0.3-1.5,0.8-2.9c0.8-2.4,2-4,6.1-15.3
				c4.9-13.5,6-19.1,10.8-21.3c1.3-0.6,2-0.6,7.2-0.5c6.3,0,12.7-0.2,19,0c4.9,0.1,11.9,0.2,20.5,0.1c-0.1,17-0.1,34.1-0.2,51.1"/>
			<rect x="59.2" y="146" class="st0" width="61.6" height="17.3"/>
			<rect x="56.3" y="160.3" class="st0" width="6.9" height="3"/>
		</g>
	</g>
</g>
<path class="st0" d="M264.9,164.6c-0.5-1.3-1.2-2.7-1.3-4c-0.2-3.2-0.1-6.4-0.1-9.8c-3.4,3.3-6.5,6.3-9.7,9.4
	c-0.6,0.6-1.2,1.3-1.9,1.9c-1.1,1-2.6,1.1-3.3-0.1c-0.5-0.8-0.6-2.5-0.1-3.3c1-1.6,2.5-2.8,3.8-4.1c3.4-3.4,6.8-6.8,10.1-10.3
	c0.5-0.5,1.1-1.2,1.1-1.8c0.1-6.1,0-12.3,0-18.8c-4.4,2.6-8.3,5.1-12.5,7.2c-2.5,1.3-3.7,3.1-4.3,5.8c-1.2,5.4-2.7,10.8-4.3,16.1
	c-0.3,1.1-1.4,2.4-2.5,2.7c-1.8,0.6-3.1-1.5-2.4-3.9c1.2-4.6,2.4-9.1,3.6-13.7c0.1-0.3,0.1-0.7,0.3-1.4c-3.4,1.9-6.5,3.7-9.6,5.5
	c-0.5,0.3-1,0.6-1.6,0.9c-1.4,0.5-2.5,0.2-3.3-1.1c-0.8-1.5-0.2-2.6,1.1-3.4c2.7-1.6,5.4-3.2,8.2-4.8c0.7-0.4,1.4-0.8,2.6-1.5
	c-3.5-1-6.5-1.8-9.4-2.6c-1.9-0.5-3.8-0.9-5.7-1.5c-1.6-0.5-3.1-1.3-2.5-3.3c0.5-1.8,1.9-2.2,3.8-1.7c6.1,1.7,12.1,3.3,18.2,4.9
	c1.1,0.3,2.5,0.1,3.5-0.5c4.6-2.5,9.1-5.2,14-8c-5.2-3-10.1-5.9-15.1-8.7c-0.5-0.3-1.5,0-2.1,0.1c-6,1.6-12,3.2-18,4.8
	c-0.3,0.1-0.6,0.2-0.9,0.3c-1.6,0.3-2.9-0.1-3.4-1.8c-0.4-1.7,0.5-2.7,2.1-3.1c4.3-1.2,8.7-2.4,13-3.5c0.7-0.2,1.4-0.4,2.4-0.7
	c-3.6-2.1-7.1-4-10.3-6.1c-0.9-0.6-1.7-2-1.7-3c0-1.9,2.1-2.5,4-1.5c2.8,1.6,5.6,3.2,8.4,4.8c0.6,0.4,1.3,0.7,2.3,1.2
	c-1.4-5.3-2.8-10.2-3.9-15.1c-0.2-1,0.1-2.6,0.8-3.4c1.3-1.4,3.3-0.4,3.9,1.9c1.6,6,3.3,12,4.8,18c0.4,1.7,1.2,2.7,2.7,3.5
	c4.4,2.5,8.8,5.1,13.4,7.8c0.1-0.7,0.2-1.3,0.2-1.8c0-5.2,0-10.4,0-15.6c0-1.6-0.5-2.6-1.6-3.7c-4.3-4.3-8.6-8.6-12.9-13
	c-1.6-1.6-1.9-3.2-0.6-4.3c1.7-1.4,3-0.6,4.3,0.7c3.5,3.5,7.1,6.9,10.8,10.4c0-3.5,0-7,0-10.4c0-2.1,1-3.4,2.7-3.4
	c1.7,0,2.7,1.3,2.7,3.4c0,3.4,0,6.8,0,10.4c3.3-3.2,6.4-6.2,9.5-9.2c0.6-0.6,1.2-1.2,1.8-1.8c1.2-1.2,2.6-1.4,3.8-0.2
	c1.2,1.2,1,2.6-0.2,3.8c-1.5,1.6-3.1,3.1-4.6,4.7c-3,3-6,5.9-8.8,9c-0.8,0.9-1.4,2.3-1.4,3.5c-0.1,5.7-0.1,11.4-0.1,17.5
	c5.3-3.1,10.3-6.1,15.3-9.1c0.5-0.3,0.7-1.3,0.9-1.9c1.6-5.9,3.1-11.7,4.6-17.6c0.1-0.5,0.3-1,0.5-1.5c0.5-1.3,1.5-2.1,3-1.7
	c1.5,0.3,2.2,1.4,1.9,2.9c-0.4,2.1-1,4.1-1.5,6.1c-0.8,3.2-1.7,6.3-2.6,10c3.1-1.8,5.8-3.3,8.5-4.9c0.7-0.4,1.3-0.8,1.9-1.1
	c1.6-0.9,3.1-1.1,4.1,0.7c0.9,1.7,0,2.8-1.4,3.7c-2.7,1.6-5.5,3.2-8.2,4.8c-0.6,0.4-1.3,0.8-2.3,1.4c5,1.3,9.7,2.5,14.3,3.9
	c1.3,0.4,2.3,1.4,3.5,2.1c0,0.5,0,0.9,0,1.4c-1,1.8-2.4,2.1-4.4,1.5c-6-1.7-12.1-3.3-18.2-4.8c-0.7-0.2-1.7-0.3-2.3,0.1
	c-4.9,2.7-9.7,5.6-14.8,8.5c4.8,2.8,9.4,5.5,14,8.1c1,0.5,2.4,0.7,3.5,0.4c5.9-1.5,11.9-3.1,17.7-4.8c1.9-0.6,3.3-0.2,4.5,1.4
	c0,0.6,0,1.2,0,1.8c-1.1,0.6-2.2,1.5-3.4,1.8c-4.6,1.3-9.2,2.5-14.3,4c1.1,0.7,1.8,1.1,2.5,1.5c2.8,1.6,5.6,3.2,8.4,4.9
	c1.3,0.8,1.9,2,1,3.4c-0.8,1.4-2.1,1.6-3.5,1c-0.6-0.3-1.2-0.7-1.8-1c-3-1.7-5.9-3.4-9.1-5.3c0.1,0.6,0.1,0.9,0.2,1.2
	c1.2,4.6,2.5,9.3,3.7,13.9c0.6,2.3-0.6,4.4-2.5,3.8c-1-0.3-2.1-1.5-2.4-2.5c-1.5-4.9-2.9-9.8-3.9-14.8c-0.8-3.8-2.5-6.4-6.1-8.1
	c-3.8-1.8-7.2-4.1-11.1-6.4c0,4.2,0.4,8.1-0.1,11.9c-0.6,5.6,1.1,9.7,5.4,13.2c3.4,2.8,6.3,6.2,9.4,9.4c1.2,1.2,1.6,2.6,0.3,4
	c-1.4,1.3-2.7,0.8-3.9-0.4c-0.5-0.5-1-1.1-1.6-1.6c-3.1-3-6.2-6-9.5-9.3c0,3.4,0.1,6.6-0.1,9.8c-0.1,1.4-0.8,2.7-1.3,4
	C266.7,164.6,265.8,164.6,264.9,164.6z"/>
</svg>
