<?xml version="1.0" encoding="utf-8"?>
<!-- Generator: Adobe Illustrator 27.0.0, SVG Export Plug-In . SVG Version: 6.00 Build 0)  -->
<svg version="1.1" id="Слой_1" xmlns="http://www.w3.org/2000/svg" xmlns:xlink="http://www.w3.org/1999/xlink" x="0px" y="0px"
	 viewBox="0 0 595.3 841.9" style="enable-background:new 0 0 595.3 841.9;" xml:space="preserve">
<style type="text/css">
	.st0{fill:#FFFFFF;}
</style>
<g>
	<g>
		<path d="M47.1,24.8c12.2,0.1,32,0,47.2,0.1c6.6,0,10.7,3.8,10.7,10.1c0.1,13.7,0.1,27.4,0.1,41.1c0,7,0,14,0,21.2
			c-18,0-36.1,0.1-54.1,0.1L47.1,24.8z"/>
		<rect x="23.8" y="24.8" width="42" height="72.6"/>
	</g>
	<path class="st0" d="M46.2,30.8L46.2,30.8l0-0.1C46.2,30.8,46.2,30.8,46.2,30.8z"/>
	<path d="M257.7,67.8c0,10.2,0,20.4,0,30.7c-41.3,0-82.6,0-124,0c0-10.2,0-20.4,0-30.7C175,67.8,216.3,67.8,257.7,67.8z"/>
	<path d="M105.2,123.2c-8,0-15.8,0-23.7,0c0.4-8.5-2.9-15.2-10-20.6c23.2,0,45.8,0,68.5,0c0.2,0.2,0.4,0.3,0.6,0.5
		c-1.6,1.3-3.4,2.5-4.6,4c-1.5,1.9-2.8,4.1-3.8,6.3c-0.6,1.3-1.2,1.7-2.6,1.7c-7.2-0.1-14.4,0-21.6,0c-0.8,0-1.6,0.1-2.7,0.2
		C105.2,118,105.2,120.6,105.2,123.2z"/>
	<path d="M153.1,140.6c-10.3,0.5-19.1-8.3-19-18.9c0.1-11.2,8.7-19.2,19.4-19.3c10.1,0,19.7,8.1,19,20.8
		C172,131.9,163.9,141.3,153.1,140.6z M153.5,131.2c4.1,0.6,9.5-4.7,9.4-9.7c-0.2-4.8-3.7-9-9.7-9.5c-4.4-0.4-9.7,5.1-9.4,9.7
		C144,126.7,147.7,131.4,153.5,131.2z"/>
	<path d="M58.5,140.6c-10,1-19.4-9.3-19.1-19c0.3-11.5,8.9-19.2,19.4-19.1c10.5,0.1,19.4,7.8,19.1,20
		C77.6,132.3,69.1,141.3,58.5,140.6z M58.9,131.2c4.4,0.6,9.6-4.9,9.4-9.4c-0.3-5.7-4-9.6-9.5-9.7c-5.3-0.1-9.6,4.4-9.6,9.6
		C49.2,126.6,53.3,131.4,58.9,131.2z"/>
	<path d="M241.4,140.6c-10.4,0.4-19.1-8.2-19.1-18.9c0-11,8.3-19.3,19.3-19.3c9.9,0,19.9,7.6,19.1,20.9
		C260.1,132.3,252.1,141.2,241.4,140.6z M250.9,121.7c0.2-5.5-4.1-9.3-9.2-9.8c-4.6-0.5-10.2,5.1-9.9,9.8c0.4,5.1,4.1,9.3,9.8,9.5
		C246.3,131.4,251.6,126.3,250.9,121.7z"/>
	<path d="M228.8,102.6c-1.7,1.6-3.4,2.8-4.5,4.3c-1.6,2.1-2.8,4.4-4.1,6.7c-0.6,1-1.1,1.7-2.4,1.7c-13.9-0.1-27.8,0-41.7,0
		c-0.2,0-0.4,0-0.8-0.1c-1.6-5-4.7-9-9.3-12.5C187.1,102.6,207.6,102.6,228.8,102.6z"/>
	<path class="st0" d="M153.5,131.2c-5.8,0.2-9.5-4.5-9.8-9.4c-0.3-4.6,5-10.1,9.4-9.7c6,0.5,9.6,4.6,9.7,9.5
		C163.1,126.5,157.6,131.7,153.5,131.2z"/>
	<path class="st0" d="M58.9,131.2c-5.6,0.3-9.7-4.6-9.8-9.4c0-5.2,4.3-9.7,9.6-9.6c5.5,0.1,9.2,4,9.5,9.7
		C68.5,126.2,63.3,131.8,58.9,131.2z"/>
	<path class="st0" d="M250.9,121.7c0.6,4.5-4.6,9.7-9.3,9.5c-5.7-0.2-9.4-4.4-9.8-9.5c-0.4-4.7,5.3-10.2,9.9-9.8
		C246.8,112.5,251.2,116.2,250.9,121.7z"/>
	<g>
		<path d="M23.9,102.5c7.3,0,14.3,0,22,0c-7.1,5.4-10.3,12.2-10.2,20.8c-2.5,0-4.9,0.1-7.3-0.1c-0.5,0-1.1-0.6-1.3-1.1
			C24.8,115.8,23.7,109.4,23.9,102.5z"/>
		<rect x="24" y="102.5" width="8.5" height="20.7"/>
	</g>
</g>
</svg>
